<?xml version="1.0" standalone="no"?>
<!DOCTYPE svg PUBLIC "-//W3C//DTD SVG 20010904//EN"
 "http://www.w3.org/TR/2001/REC-SVG-20010904/DTD/svg10.dtd">
<svg version="1.0" xmlns="http://www.w3.org/2000/svg"
 width="300.000000pt" height="300.000000pt" viewBox="0 0 300.000000 300.000000"
 preserveAspectRatio="xMidYMid meet">
<metadata>
Created by potrace 1.10, written by Peter Selinger 2001-2011
</metadata>
<g transform="translate(0.000000,300.000000) scale(0.100000,-0.100000)"
fill="#ff0018" stroke="none">
<path d="M1558 2383 c18 -2 45 -2 60 0 15 2 0 4 -33 4 -33 0 -45 -2 -27 -4z"/>
<path d="M1305 2284 c-116 -21 -203 -49 -295 -95 -144 -72 -260 -205 -260
-299 0 -22 -7 -41 -19 -52 -10 -8 -21 -22 -24 -29 -4 -10 -12 -7 -29 14 -13
15 -29 27 -36 27 -23 0 -40 -46 -46 -126 -7 -81 -7 -82 21 -104 18 -14 37 -20
55 -18 23 4 28 1 28 -18 0 -25 -18 -35 -49 -27 -36 9 -54 -15 -47 -63 4 -33 1
-48 -15 -68 -27 -35 -22 -76 13 -95 26 -15 29 -14 56 12 35 34 40 34 34 -2 -3
-22 1 -32 17 -41 12 -6 30 -8 40 -5 22 7 31 -17 31 -82 0 -55 25 -118 56 -137
65 -43 308 -66 692 -66 408 0 639 22 706 65 33 22 56 74 56 128 0 68 13 93 51
101 61 12 100 71 67 104 -9 9 -7 17 10 35 12 13 22 33 22 45 0 25 -57 82 -82
82 -10 0 -18 7 -18 16 0 10 5 14 15 10 8 -3 21 -8 28 -11 18 -8 67 32 67 55 0
10 -11 32 -25 48 l-24 29 24 11 c48 22 43 93 -10 128 -21 13 -31 15 -50 6 -24
-11 -25 -10 -25 21 0 53 -46 131 -115 195 -121 113 -277 180 -500 212 -100 14
-326 11 -420 -6z m173 -21 c-10 -2 -18 -9 -18 -14 0 -14 17 -11 34 6 17 17
166 22 166 5 0 -5 -12 -11 -27 -11 -25 -2 -25 -2 -5 -6 13 -3 29 1 37 7 21 17
145 3 145 -17 0 -10 -7 -14 -20 -10 -13 3 -21 -1 -25 -14 -7 -21 -18 -24 -45
-9 -16 8 -18 8 -14 -5 8 -19 53 -20 60 0 4 8 14 15 25 15 10 0 22 8 28 17 8
16 11 15 29 -7 17 -21 23 -23 34 -12 7 7 9 13 3 12 -20 -4 -35 0 -35 9 0 5 34
-2 75 -16 46 -15 75 -30 75 -39 0 -17 -5 -17 -33 -2 -20 10 -21 10 -8 -5 17
-21 40 -22 47 -2 12 31 171 -72 236 -152 64 -79 77 -158 32 -188 -31 -20 -203
-65 -251 -65 -20 0 -48 9 -65 21 -38 28 -105 22 -198 -17 l-65 -26 -260 5
c-281 7 -411 19 -462 43 -21 9 -45 13 -66 9 -46 -9 -104 16 -117 51 -13 34 9
115 44 162 25 35 77 81 134 121 46 32 210 101 254 106 20 3 49 10 63 15 33 12
35 12 35 0 0 -6 -10 -15 -22 -20 l-23 -9 23 0 c16 -1 26 6 29 18 4 16 16 21
52 24 68 5 119 5 99 0z m852 -419 c0 -16 -23 -44 -36 -44 -8 0 -17 -6 -20 -13
-2 -7 -18 -14 -34 -15 -16 -1 -40 -6 -54 -12 -13 -5 -53 -11 -88 -14 -42 -4
-55 -3 -38 3 14 5 37 9 52 10 46 2 154 42 179 66 23 23 39 31 39 19z m-1494
-61 c17 -11 16 -12 -11 -7 l-30 6 30 -21 c17 -11 27 -21 22 -21 -8 0 -130 32
-135 36 -2 1 11 16 29 32 l34 30 20 -22 c12 -11 30 -27 41 -33z m1578 21 l17
-37 -33 -27 -33 -28 21 -24 c33 -36 35 -45 18 -62 -24 -25 -54 -4 -49 35 3 26
0 32 -26 41 -16 5 -26 14 -23 19 3 5 -19 9 -48 9 l-53 1 55 18 c29 11 60 28
67 38 20 29 46 53 58 53 6 0 19 -16 29 -36z m-1668 -59 c35 -10 65 -26 76 -41
13 -16 29 -24 51 -24 21 0 28 3 19 9 -19 12 6 21 41 14 38 -7 44 -23 10 -24
-25 0 -26 -1 -8 -10 14 -6 3 -8 -39 -6 -53 4 -57 2 -40 -10 21 -16 97 -11 120
8 11 9 14 6 14 -15 0 -24 10 -31 83 -66 74 -35 169 -60 235 -60 42 0 14 17
-39 24 -28 4 -58 11 -67 15 -45 23 -69 32 -78 30 -17 -3 -37 1 -32 7 4 3 9 4
12 2 3 -2 13 8 22 20 11 17 23 23 39 19 16 -3 22 0 18 10 -3 7 -1 13 5 13 9 0
70 -44 108 -78 35 -32 60 -42 111 -42 l48 -1 -58 -29 c-69 -35 -71 -36 -58
-11 10 18 9 18 -26 0 -57 -29 -140 -42 -233 -36 -119 8 -155 21 -218 80 -76
72 -104 129 -59 121 20 -4 20 -4 2 5 -11 4 -23 7 -27 4 -5 -2 -8 5 -8 15 0 11
-7 26 -17 33 -15 13 -15 12 -2 -9 13 -21 12 -25 -14 -48 -59 -51 -114 -42
-110 17 4 46 9 112 11 124 1 5 13 -2 27 -17 14 -15 48 -33 81 -43z m1212 6
c22 -16 43 -34 47 -40 8 -14 72 -14 150 1 54 9 70 9 111 -6 27 -10 56 -17 65
-17 19 0 15 -32 -7 -50 -10 -8 -21 -5 -47 15 -42 32 -97 34 -150 6 -59 -32
-103 -27 -143 16 -19 19 -34 39 -34 44 0 4 -16 15 -35 25 -30 13 -42 14 -70 5
-45 -15 -56 -36 -49 -97 10 -84 -29 -92 -154 -33 -88 41 -118 40 -164 -9 -40
-42 -93 -61 -129 -45 -11 5 -36 32 -57 59 -49 66 -89 72 -162 25 -27 -17 -57
-30 -66 -28 -10 2 -36 30 -59 63 -33 50 -46 61 -73 63 -24 3 -38 -3 -57 -24
-19 -20 -25 -23 -25 -10 0 29 37 56 79 56 29 0 49 -8 79 -32 23 -18 39 -38 37
-45 -2 -6 2 -19 9 -29 12 -16 15 -16 35 -2 22 15 22 16 1 21 -11 3 -18 1 -14
-4 3 -5 1 -9 -5 -9 -17 0 -21 18 -5 24 28 11 195 6 217 -5 12 -7 35 -23 50
-35 16 -13 36 -24 45 -23 14 0 13 2 -3 10 -17 8 -16 9 7 6 15 -2 25 -1 23 4
-9 14 95 41 188 49 73 6 109 15 172 44 100 44 139 46 193 7z m-789 -17 c8 -7
-74 -2 -99 6 -16 5 -2 6 35 3 33 -3 62 -7 64 -9z m731 -19 c0 -8 4 -15 10 -15
5 0 18 -17 29 -39 23 -45 41 -54 89 -45 25 5 33 4 28 -5 -11 -17 44 -3 67 17
22 19 90 17 135 -4 18 -9 39 -13 46 -11 20 8 37 -48 20 -70 -7 -10 -14 -28
-14 -40 0 -35 -61 -73 -148 -94 -81 -19 -288 -44 -459 -55 -100 -7 -103 -7
-103 -31 0 -14 -4 -21 -10 -18 -11 7 -13 -6 -4 -28 4 -12 15 -10 62 13 31 16
85 34 119 40 75 13 318 7 337 -9 11 -9 16 -6 24 17 8 23 20 31 70 45 44 12 75
30 112 62 31 27 60 45 75 45 31 0 33 -25 4 -41 -21 -11 -21 -20 -4 -75 9 -29
-51 -59 -90 -44 -47 18 -90 12 -115 -15 -27 -29 -51 -31 -86 -9 -24 16 -26 16
-57 -15 -38 -36 -58 -39 -98 -10 -58 41 -131 35 -276 -22 -81 -32 -103 -30
-103 11 0 32 -9 36 -82 46 -45 6 -49 8 -28 16 13 5 48 11 79 13 30 3 56 6 58
8 1 2 -68 4 -155 4 -254 0 -610 49 -642 88 -9 10 -4 12 22 9 18 -2 53 -6 78
-8 l45 -5 -42 11 c-26 7 -45 18 -48 29 -8 23 -25 25 -25 4 0 -16 -37 -21 -55
-7 -13 9 -37 52 -30 52 3 0 19 -7 35 -15 22 -11 31 -12 36 -3 4 6 3 13 -2 15
-35 12 -61 33 -72 57 -12 24 -12 30 4 47 25 28 34 23 34 -19 0 -33 6 -42 40
-68 22 -16 40 -32 40 -36 0 -15 48 -38 101 -48 118 -23 269 -35 269 -22 0 15
102 45 109 33 4 -6 35 4 78 24 40 19 99 39 132 46 52 10 65 9 107 -7 58 -22
53 -25 -111 -54 -223 -40 -229 -41 -214 -51 8 -5 22 -9 31 -9 9 0 24 -10 32
-21 17 -25 40 -26 216 -15 58 4 128 6 156 6 60 0 107 29 102 63 -2 17 -17 25
-76 40 -40 10 -89 29 -109 43 -47 32 -75 38 -126 29 -23 -4 -58 -9 -77 -12
l-34 -6 48 42 c27 23 52 41 56 39 4 -2 51 -18 106 -37 114 -39 141 -38 175 11
13 17 18 28 11 24 -16 -10 -16 16 0 32 9 9 9 12 0 12 -18 0 -15 13 8 38 24 25
60 29 60 7z m-475 -31 c-39 -14 -89 -11 -100 7 -4 5 25 9 67 8 l73 0 -40 -15z
m-637 -258 c58 -30 208 -64 307 -70 105 -6 195 -24 198 -41 4 -19 -44 -16 -89
6 -41 19 -56 21 -133 16 -68 -5 -93 -3 -116 9 -41 22 -108 19 -159 -6 -61 -29
-80 -27 -73 9 6 29 -7 51 -29 51 -7 0 -26 -12 -43 -26 -50 -42 -69 -10 -30 52
12 21 19 46 17 66 -3 32 -1 33 37 38 39 5 40 4 62 -42 13 -28 33 -53 51 -62z
m1572 89 c-1 -5 -9 -13 -19 -17 -15 -5 -18 -3 -14 13 6 20 35 23 33 4z m-546
-58 l40 -15 -42 -21 c-49 -25 -52 -25 -52 -6 0 19 -23 19 -62 -1 -24 -12 -44
-14 -92 -8 -73 9 -104 7 -131 -10 -17 -11 -27 -10 -60 4 l-40 18 29 11 c24 10
120 27 251 45 50 6 118 0 159 -17z m316 -74 c-8 -3 -22 -11 -30 -18 -21 -17
-98 -26 -140 -16 -33 7 -31 8 40 20 41 7 82 14 90 15 26 6 57 5 40 -1z m-1194
-54 c31 -19 43 -20 127 -14 84 6 96 5 128 -14 43 -26 75 -26 118 0 25 15 43
19 65 15 17 -4 59 -11 94 -16 73 -11 83 -16 76 -34 -3 -8 -1 -17 5 -21 20 -12
11 -23 -21 -29 -45 -8 -150 -59 -204 -98 l-45 -32 -119 62 c-93 49 -141 68
-225 87 -99 22 -155 45 -155 63 0 7 96 50 114 51 5 1 24 -8 42 -20z m1349 -20
c15 -23 -37 -58 -108 -74 -89 -20 -105 -28 -144 -73 l-32 -37 -58 32 c-78 42
-154 63 -232 63 l-66 1 35 15 c61 26 152 54 179 54 14 0 48 -11 74 -26 55 -29
81 -25 113 14 21 25 22 26 47 9 37 -24 71 -21 104 8 29 25 77 33 88 14z
m-1369 -100 c102 -28 190 -64 256 -104 87 -54 107 -55 180 -7 125 81 146 87
308 87 l145 0 81 -37 c45 -21 92 -38 105 -38 13 0 39 16 61 36 28 28 54 41
105 54 37 10 77 21 87 26 18 7 19 4 12 -37 -4 -24 -14 -54 -22 -66 -18 -28
-89 -49 -214 -62 -135 -15 -778 -15 -940 0 -204 18 -252 43 -263 137 -5 38 -3
43 11 37 10 -3 49 -15 88 -26z"/>
<path d="M1564 2209 c-3 -6 -17 -8 -33 -4 -24 6 -25 5 -10 -10 19 -20 59 -12
59 11 0 17 -6 18 -16 3z"/>
<path d="M1204 2179 c-3 -6 -15 -9 -25 -6 -22 6 -26 -8 -4 -17 21 -8 45 3 45
20 0 17 -6 18 -16 3z"/>
<path d="M1861 2178 c-1 -20 37 -34 52 -19 8 8 4 11 -15 11 -15 0 -29 6 -31
13 -3 7 -6 6 -6 -5z"/>
<path d="M1076 2114 c-4 -10 -14 -14 -26 -11 -24 6 -27 -11 -4 -20 18 -7 62
31 46 41 -5 3 -13 -1 -16 -10z"/>
<path d="M1217 2089 c-5 -20 -8 -21 -23 -8 -15 12 -17 12 -12 -1 2 -8 14 -16
25 -18 22 -3 36 18 23 37 -5 9 -9 6 -13 -10z"/>
<path d="M1290 2092 c0 -16 -6 -22 -22 -22 -15 0 -19 -3 -12 -10 13 -13 41 -3
49 17 3 9 1 21 -5 27 -7 7 -10 3 -10 -12z"/>
<path d="M1938 2098 c23 -29 3 -42 -24 -17 -13 12 -24 18 -24 12 0 -17 39 -46
55 -40 20 8 19 31 -2 48 -16 13 -17 12 -5 -3z"/>
<path d="M1780 2087 c0 -14 20 -27 41 -27 5 0 9 7 9 16 0 8 -5 12 -10 9 -6 -4
-17 -1 -25 5 -12 10 -15 9 -15 -3z"/>
<path d="M1590 2077 c0 -20 -11 -22 -29 -4 -11 10 -13 9 -9 -3 6 -19 37 -25
51 -11 8 8 8 14 -1 23 -9 9 -12 8 -12 -5z"/>
<path d="M1444 2061 c3 -5 -1 -15 -10 -22 -13 -10 -17 -10 -25 2 -6 10 -9 11
-9 1 0 -19 28 -26 45 -12 17 14 20 40 4 40 -5 0 -8 -4 -5 -9z"/>
<path d="M1965 1853 c-22 -5 -45 -23 -29 -23 5 0 29 7 54 14 30 10 36 14 20
14 -14 0 -34 -2 -45 -5z"/>
<path d="M2383 1773 c-17 -2 -37 -11 -45 -20 -11 -14 -10 -15 12 -8 46 14 70
24 70 30 0 3 -1 4 -2 3 -2 0 -17 -3 -35 -5z"/>
<path d="M1153 1606 c8 -8 32 -17 53 -20 38 -6 38 -6 7 4 -18 6 -35 15 -38 20
-3 6 -13 10 -21 10 -13 0 -14 -2 -1 -14z"/>
<path d="M1986 1583 c-15 -4 -16 -7 -5 -14 9 -6 10 -9 2 -9 -6 0 -15 5 -18 10
-3 6 -18 10 -33 9 -24 0 -25 -1 -7 -9 15 -6 8 -9 -30 -11 l-50 -1 60 -10 c62
-11 242 3 288 22 15 6 2 7 -38 3 -99 -11 -150 -10 -147 5 1 6 1 11 0 11 -2 -1
-12 -4 -22 -6z"/>
<path d="M2180 1543 c-34 -9 -106 -16 -184 -17 -138 -1 -128 -13 12 -15 83 -1
217 22 227 40 4 5 5 9 3 8 -2 -1 -28 -8 -58 -16z"/>
<path d="M2204 1463 c-7 -12 -24 -18 -52 -18 -22 0 -38 -3 -36 -7 14 -23 114
6 114 33 0 15 -14 10 -26 -8z"/>
<path d="M2315 1396 c-11 -8 -25 -12 -32 -9 -7 3 -13 0 -13 -6 0 -6 8 -11 18
-11 21 0 60 26 51 34 -3 3 -14 0 -24 -8z"/>
<path d="M938 1160 c-5 -16 39 -70 56 -70 6 0 4 6 -5 13 -9 7 -23 25 -31 41
-10 19 -17 24 -20 16z"/>
<path d="M1494 1140 c-34 -17 -65 -38 -68 -47 -6 -15 -5 -16 11 -1 10 9 42 28
71 42 28 14 52 29 52 31 0 7 1 7 -66 -25z"/>
<path d="M2288 2128 c57 -60 76 -86 105 -144 20 -40 32 -53 55 -57 18 -4 37
-18 51 -39 11 -18 21 -27 21 -20 0 20 -56 72 -77 72 -14 0 -28 18 -48 59 -25
53 -122 171 -140 171 -4 0 11 -19 33 -42z"/>
<path d="M2518 1790 c-4 -36 -9 -90 -11 -120 -3 -30 -7 -64 -11 -75 -3 -11 0
-6 9 10 8 17 14 48 13 70 -1 22 2 52 6 66 4 14 6 45 4 70 -3 41 -4 39 -10 -21z"/>
<path d="M491 1389 c-1 -14 4 -39 9 -56 12 -33 64 -77 83 -69 7 3 6 5 -4 5
-27 2 -69 56 -78 102 -6 29 -9 35 -10 18z"/>
<path d="M2481 1364 c-1 -19 -11 -41 -25 -55 -62 -60 -72 -69 -82 -69 -6 0
-14 -26 -17 -59 -7 -86 -31 -127 -91 -162 -28 -16 -44 -29 -35 -29 26 0 97 57
115 91 9 18 19 57 21 88 5 53 8 58 59 100 54 43 70 72 61 108 -3 11 -5 5 -6
-13z"/>
<path d="M688 1223 c6 -2 12 -17 12 -31 0 -41 20 -104 41 -131 25 -31 24 -21
-2 23 -11 19 -23 60 -26 90 -4 43 -10 56 -22 55 -10 0 -12 -2 -3 -6z"/>
<path d="M744 890 c0 -80 2 -112 3 -72 2 39 2 105 0 145 -1 39 -3 7 -3 -73z"/>
<path d="M817 1013 c-4 -3 -7 -64 -7 -134 l0 -128 44 -6 c106 -16 175 57 115
121 -20 21 -20 24 -5 39 46 46 -15 115 -102 115 -21 0 -42 -3 -45 -7z m93 -38
c20 -24 4 -65 -25 -65 -26 0 -30 13 -19 58 7 25 26 29 44 7z m5 -150 c0 -23
-5 -31 -22 -33 -17 -3 -23 2 -23 16 0 11 -3 28 -6 37 -6 13 -1 16 22 13 25 -3
29 -7 29 -33z"/>
<path d="M2160 935 l0 -55 40 0 c30 0 45 -6 65 -27 40 -44 33 -91 -18 -122
-27 -15 -52 -19 -153 -19 -79 0 -129 4 -145 12 -19 10 -29 10 -49 0 -17 -8
-66 -12 -145 -11 l-119 2 -43 -42 c-23 -24 -39 -43 -34 -43 5 0 24 17 43 38
l33 37 130 2 c145 3 136 3 333 0 l144 -2 29 33 c39 43 39 84 0 123 -22 21 -39
29 -65 29 -36 0 -36 0 -36 44 0 38 3 45 23 49 19 4 18 4 -5 6 -27 1 -28 0 -28
-54z"/>
<path d="M1014 948 c-2 -4 0 -9 6 -13 6 -4 9 -34 8 -69 -2 -41 2 -68 10 -79
16 -19 67 -32 84 -20 7 4 37 6 66 4 48 -3 52 -1 52 19 0 17 -4 20 -21 15 -21
-7 -22 -5 -17 73 l5 80 -34 -1 -33 -1 0 -67 c0 -75 -16 -103 -46 -78 -13 10
-15 28 -12 80 l4 67 -34 -1 c-19 -1 -36 -5 -38 -9z"/>
<path d="M1244 949 c-3 -6 -1 -15 6 -19 9 -5 11 -30 8 -84 l-3 -76 35 0 35 0
-3 65 c-3 56 -1 66 15 71 33 10 48 21 48 35 0 21 -34 23 -56 4 -17 -16 -19
-16 -25 -1 -7 18 -49 22 -60 5z"/>
<path d="M1429 946 c-25 -18 -39 -52 -39 -95 0 -50 37 -84 87 -79 40 3 48 -4
33 -31 -14 -26 -46 -27 -62 -2 -9 15 -15 17 -25 9 -21 -17 -15 -37 18 -54 37
-18 74 -12 107 18 20 19 22 31 22 119 0 54 4 101 10 104 24 15 5 22 -63 22
-40 0 -80 -4 -88 -11z m79 -74 c3 -56 -13 -77 -43 -52 -18 15 -20 81 -3 98 26
26 43 9 46 -46z"/>
<path d="M1629 931 c-38 -39 -39 -87 -3 -130 21 -25 34 -31 64 -31 48 0 103
41 83 61 -10 10 -16 9 -31 -4 -22 -20 -43 -22 -60 -5 -21 21 -13 34 30 44 53
12 67 33 45 68 -26 38 -88 37 -128 -3z m81 -15 c0 -8 -10 -22 -22 -31 -21 -14
-23 -14 -26 0 -4 19 15 45 34 45 8 0 14 -6 14 -14z"/>
<path d="M1815 952 c-5 -4 -10 -46 -10 -95 l0 -87 35 0 35 0 -3 55 c-4 60 8
85 39 85 19 0 43 33 32 44 -12 12 -54 6 -59 -9 -4 -8 -10 -15 -15 -15 -5 0 -9
7 -9 15 0 16 -28 20 -45 7z"/>
<path d="M1967 942 c-32 -35 -17 -62 51 -96 38 -20 38 -40 -1 -44 -22 -3 -27
1 -27 18 0 16 -5 21 -22 18 -38 -5 -29 -40 14 -61 32 -16 43 -17 74 -7 36 12
59 47 48 74 -3 9 -26 27 -50 41 -46 27 -54 39 -29 49 24 9 47 -5 42 -25 -7
-24 31 -26 40 -2 17 44 -104 74 -140 35z"/>
<path d="M2148 839 c-42 -24 -5 -89 42 -74 27 9 27 60 1 75 -23 12 -22 12 -43
-1z"/>
<path d="M750 734 c0 -17 32 -40 74 -54 42 -13 112 -9 161 10 19 8 91 12 194
12 149 0 165 -1 174 -18 12 -21 48 -53 60 -54 5 0 -8 15 -27 34 -20 18 -36 37
-36 42 0 12 -342 9 -366 -3 -61 -32 -191 -20 -219 20 -8 12 -15 17 -15 11z"/>
<path d="M1458 623 c18 -2 45 -2 60 0 15 2 0 4 -33 4 -33 0 -45 -2 -27 -4z"/>
</g>
</svg>
