<svg xmlns:mydata="http://www.w3.org/2000/svg" xmlns="http://www.w3.org/2000/svg" xmlns:xlink="http://www.w3.org/1999/xlink" viewBox="0 -40 550 550">
  <g fill="#ee2737" fill-rule="none" stroke="none" stroke-width="1" stroke-linecap="butt" stroke-linejoin="miter" stroke-miterlimit="10" stroke-dasharray="" stroke-dashoffset="0" font-family="none" font-weight="none" font-size="none" text-anchor="none" style="mix-blend-mode: normal">
  <g data-paper-data="{&quot;isGlobalGroup&quot;:true,&quot;bounds&quot;:{&quot;x&quot;:70.4335830688261,&quot;y&quot;:115.00000000000003,&quot;width&quot;:409.13283386234775,&quot;height&quot;:239.99999999999997}}">
  <g data-paper-data="{&quot;isPrimaryText&quot;:true}" fill-rule="nonzero">
  <path d="M101.99169,319.16294c10.09489,-1.74704 18.21035,-7.52346 18.21035,-14.54498c0,-10.39467 -9.8033,-16.11945 -27.60429,-16.11945h-22.16417v64.9363h23.40108c18.34387,0 29.7399,-7.21738 29.7399,-18.83637c-0.00126,-8.22316 -9.32781,-14.25528 -21.58288,-15.4355zM83.38205,291.38987h7.30492c12.94972,0 15.66789,7.14433 15.66789,13.1374c0,12.59389 -11.34943,13.95298 -16.22904,13.95298h-6.74378zM90.23667,350.54659h-6.85463v-29.26567h6.96799c13.14307,0 19.26399,4.60628 19.26399,14.49712c-0.00063,9.93807 -6.33883,14.76856 -19.37735,14.76856z" data-paper-data="{&quot;glyphName&quot;:&quot;B&quot;,&quot;glyphIndex&quot;:0,&quot;firstGlyphOfWord&quot;:true,&quot;word&quot;:1}"></path><path d="M183.92077,288.49977v41.93388c0,12.96988 -6.40244,20.11295 -18.02771,20.11295c-11.9408,0 -18.25192,-6.29726 -18.25192,-18.21098v-43.83585h-12.9491v45.82787c0,13.27973 9.24971,20.01344 27.49156,20.01344c16.44065,0 25.13111,-8.29873 25.13111,-23.99812v-41.84319z" data-paper-data="{&quot;glyphName&quot;:&quot;U&quot;,&quot;glyphIndex&quot;:1,&quot;word&quot;:1}"></path><path d="M259.37145,353.43607l-25.90071,-29.35573c11.49302,-2.1079 18.61972,-8.11231 18.61972,-17.54719c0,-12.66128 -9.47266,-18.03338 -27.08723,-18.03338h-23.44579v64.93567h12.94847v-28.50615h4.14464l24.85337,28.50678zM221.6307,291.38987c6.39677,0 16.49859,0.32371 16.49859,15.14328c0,6.13793 -1.83646,8.86491 -5.45901,11.83311c-3.70505,3.03558 -7.82198,3.67293 -11.15168,3.67293h-7.01333v-30.64932z" data-paper-data="{&quot;glyphName&quot;:&quot;R&quot;,&quot;glyphIndex&quot;:2,&quot;word&quot;:1}"></path><path d="M299.78932,322.39754l11.44075,0.01385v27.04189c-3.22956,1.4504 -6.48305,2.17844 -9.54697,2.17844c-16.0105,-0.10266 -24.47298,-10.72216 -24.47298,-30.71104c0,-25.30682 13.30493,-30.61909 24.46101,-30.61909c8.27039,0.0529 14.39446,4.0804 19.6066,9.48525l2.89955,-2.89955c-6.06172,-6.00882 -15.03433,-9.2938 -26.35416,-9.2938c-22.1415,0 -35.36014,12.45912 -35.36014,33.32844c0,20.926 13.21865,33.41913 35.36014,33.41913c4.93062,0 9.41472,-0.62601 13.40821,-1.82954l-0.00126,0.00126l12.94847,1.82828v-34.83427h-24.38922z" data-paper-data="{&quot;glyphName&quot;:&quot;G&quot;,&quot;glyphIndex&quot;:3,&quot;word&quot;:1}"></path><path d="M343.92689,303.26832c0.01763,-0.00693 0.03338,-0.01385 0.05101,-0.02141c0.08187,-0.03338 0.1713,-0.06487 0.25569,-0.09762c12.22358,-4.52629 47.18821,1.47308 47.18821,1.47308v-13.58077c-5.3551,-1.88433 -14.45429,-3.4481 -22.61825,-3.4481c-20.86932,0 -33.32844,5.29842 -33.32844,16.36633c0,8.96757 8.13184,15.01291 22.2536,17.00746c-14.12239,1.99454 -22.2536,8.03989 -22.2536,17.00746c0,11.06792 12.45912,16.36633 33.32844,16.36633c8.16396,0 17.26315,-1.56377 22.61888,-3.4481v-13.58014c0,0 -34.96464,5.99874 -47.18821,1.47308c-0.08502,-0.03275 -0.17382,-0.06487 -0.25569,-0.09762c-0.01763,-0.00693 -0.03401,-0.01448 -0.05101,-0.02141c-2.57584,-1.06308 -3.81526,-2.4883 -3.85368,-4.32917c0,-3.31332 3.06392,-11.28078 26.15577,-11.85263h16.25171v-3.03558h-16.25171c-23.09185,-0.57185 -26.15577,-8.53931 -26.15577,-11.85263c0.03779,-1.84087 1.27784,-3.26546 3.85305,-4.32854z" data-paper-data="{&quot;glyphName&quot;:&quot;E&quot;,&quot;glyphIndex&quot;:4,&quot;word&quot;:1}"></path><path d="M461.73803,353.43607l-25.90071,-29.35573c11.49302,-2.1079 18.61972,-8.11231 18.61972,-17.54719c0,-12.66128 -9.47266,-18.03338 -27.08723,-18.03338h-23.44579v64.93567h12.94847v-28.50615h4.14464l24.85337,28.50678zM423.99728,291.38987c6.39677,0 16.49859,0.32371 16.49859,15.14328c0,6.13793 -1.83646,8.86491 -5.45901,11.83311c-3.70505,3.03558 -7.82198,3.67293 -11.15168,3.67293h-7.01333v-30.64932z" data-paper-data="{&quot;glyphName&quot;:&quot;R&quot;,&quot;glyphIndex&quot;:5,&quot;word&quot;:1}"></path><path d="M473.03613,341.9388c-3.60113,0 -6.53028,2.92915 -6.53028,6.53028c0,3.60113 2.92915,6.53091 6.53028,6.53091c3.60113,0 6.53028,-2.92978 6.53028,-6.53092c0,-3.60113 -2.92915,-6.53028 -6.53028,-6.53028z" data-paper-data="{&quot;glyphName&quot;:&quot;.&quot;,&quot;glyphIndex&quot;:6,&quot;lastGlyphOfWord&quot;:true,&quot;word&quot;:1}"></path></g><g data-paper-data="{&quot;isIcon&quot;:&quot;true&quot;,&quot;iconType&quot;:&quot;icon&quot;,&quot;rawIconId&quot;:&quot;181ed41b-2ff5-4e5f-9396-26411b794c39&quot;,&quot;isSvgStockIcon&quot;:true,&quot;selectedEffects&quot;:{&quot;container&quot;:&quot;&quot;,&quot;transformation&quot;:&quot;&quot;,&quot;pattern&quot;:&quot;&quot;},&quot;combineTerms&quot;:&quot;burger,food&quot;,&quot;combineTermsExtended&quot;:{&quot;icon&quot;:[&quot;burger&quot;,&quot;food&quot;]},&quot;isDetailed&quot;:false,&quot;fillRule&quot;:&quot;evenodd&quot;,&quot;bounds&quot;:{&quot;x&quot;:191.09337838880958,&quot;y&quot;:115.00000000000003,&quot;width&quot;:167.81324322238083,&quot;height&quot;:141.28915187573241},&quot;iconStyle&quot;:&quot;standalone&quot;,&quot;suitableAsStandaloneIcon&quot;:true}" fill-rule="evenodd"><path d="M346.13321,151.86782c-6.3026,-21.70794 -26.48319,-36.86782 -49.08209,-36.86782h-43.56135c-22.59662,0 -42.77949,15.15988 -49.08209,36.86782l-0.84323,2.90697h143.41425zM209.7216,150.2291c6.56625,-18.04185 23.88078,-30.43112 43.22269,-30.66295c-0.07955,0.2341 -0.14773,0.47276 -0.14773,0.72958c0,1.25461 1.01823,2.27285 2.27285,2.27285h3.532c1.25461,0 2.27285,-1.01823 2.27285,-2.27285c0,-0.26593 -0.06818,-0.51366 -0.15228,-0.75232h35.43138c-0.08409,0.23637 -0.14773,0.48412 -0.14773,0.75004c0,1.25461 1.01369,2.27285 2.27285,2.27285h3.53427c1.25915,0 2.27285,-1.01823 2.27285,-2.27285c0,-0.07273 -0.03864,-0.13637 -0.04319,-0.20683c16.65995,2.56377 30.94933,14.13028 36.77918,30.1402zM290.4917,121.43216h-3.53427c-1.25688,0 -2.27285,1.01823 -2.27285,2.27285c0,1.25461 1.01596,2.27285 2.27285,2.27285h3.53427c1.25915,0 2.27285,-1.01823 2.27285,-2.27285c0,-1.25461 -1.01369,-2.27285 -2.27285,-2.27285zM275.27045,125.98012c1.25461,0 2.27285,-1.01823 2.27285,-2.27285c0,-1.25461 -1.01823,-2.27285 -2.27285,-2.27285h-3.532c-1.25461,0 -2.27285,1.01823 -2.27285,2.27285c0,1.25461 1.01823,2.27285 2.27285,2.27285zM265.58586,123.70728h-3.532c-1.25461,0 -2.27285,1.01823 -2.27285,2.27285c0,1.25461 1.01823,2.27285 2.27285,2.27285h3.532c1.25461,0 2.27285,-1.01823 2.27285,-2.27285c0,-1.25461 -1.01823,-2.27285 -2.27285,-2.27285zM283.96635,126.26423h-3.53427c-1.25688,0 -2.27285,1.01823 -2.27285,2.27285c0,1.25461 1.01596,2.27285 2.27285,2.27285h3.53427c1.25915,0 2.27285,-1.01823 2.27285,-2.27285c0,-1.25461 -1.01369,-2.27285 -2.27285,-2.27285zM239.77316,128.82117h-3.532c-1.25461,0 -2.27285,1.01823 -2.27285,2.27285c0,1.25461 1.01823,2.27285 2.27285,2.27285h3.532c1.25461,0 2.27285,-1.01823 2.27285,-2.27285c0,-1.25461 -1.01823,-2.27285 -2.27285,-2.27285zM306.89937,132.61455h-3.53427c-1.25688,0 -2.27285,1.01823 -2.27285,2.27285c0,1.25461 1.01596,2.27285 2.27285,2.27285h3.53427c1.25688,0 2.27285,-1.01823 2.27285,-2.27285c0,-1.25461 -1.01596,-2.27285 -2.27285,-2.27285zM277.03646,135.0715h-3.53427c-1.25461,0 -2.27285,1.01823 -2.27285,2.27285c0,1.25461 1.01823,2.27285 2.27285,2.27285h3.53427c1.25461,0 2.27285,-1.01823 2.27285,-2.27285c0,-1.25461 -1.01823,-2.27285 -2.27285,-2.27285zM325.39123,137.91028h-3.53427c-1.25915,0 -2.27285,1.01823 -2.27285,2.27285c0,1.25461 1.01369,2.27285 2.27285,2.27285h3.53427c1.25915,0 2.27285,-1.01823 2.27285,-2.27285c0,-1.25461 -1.01369,-2.27285 -2.27285,-2.27285zM258.60141,137.91256h-3.532c-1.25461,0 -2.27285,1.01823 -2.27285,2.27285c0,1.25461 1.01823,2.27285 2.27285,2.27285h3.532c1.25461,0 2.27285,-1.01823 2.27285,-2.27285c0,-1.25461 -1.01823,-2.27285 -2.27285,-2.27285zM227.37479,140.1854h-3.53427c-1.25461,0 -2.27285,1.01823 -2.27285,2.27285c0,1.25461 1.01823,2.27285 2.27285,2.27285h3.53427c1.25461,0 2.27285,-1.01823 2.27285,-2.27285c0,-1.25461 -1.01823,-2.27285 -2.27285,-2.27285zM311.01094,161.87062c-2.97743,-2.36148 -6.34806,-5.03889 -12.8643,-5.03889c-6.51625,0 -9.88688,2.67741 -12.85976,5.03889c-2.73423,2.17511 -5.09799,4.05248 -10.03006,4.05248c-4.93207,0 -7.29583,-1.87737 -10.03461,-4.05248c-2.97515,-2.36148 -6.34578,-5.03889 -12.86203,-5.03889c-6.51397,0 -9.8846,2.67741 -12.85748,5.03889c-2.73651,2.17511 -5.10026,4.05248 -10.03006,4.05248c-4.92753,0 -7.29128,-1.87737 -10.02779,-4.05248c-2.97288,-2.36376 -6.34123,-5.03889 -12.85521,-5.03889v4.54569c4.92753,0 7.29128,1.87737 10.02779,4.05248c2.97288,2.36376 6.34123,5.03889 12.85521,5.03889c6.51625,0 9.8846,-2.67741 12.85748,-5.03889c2.73651,-2.17511 5.10026,-4.05248 10.03006,-4.05248c4.9298,0 7.29583,1.87737 10.03461,4.05248c2.97515,2.36148 6.34578,5.03889 12.86203,5.03889c6.51397,0 9.8846,-2.67741 12.85748,-5.03889c2.73878,-2.17511 5.10026,-4.05248 10.03234,-4.05248c4.93207,0 7.29811,1.87964 10.03688,4.05248c2.9797,2.36148 6.34806,5.03889 12.8643,5.03889c6.51625,0 9.89142,-2.67741 12.8643,-5.03889c2.73878,-2.17511 5.10481,-4.05248 10.03916,-4.05248v-4.54569c-6.51852,0 -9.8937,2.67741 -12.86658,5.03889c-2.73878,2.17511 -5.10481,4.05248 -10.03688,4.05248c-4.93207,0 -7.29811,-1.87737 -10.03688,-4.05248zM317.94539,239.24281c13.36205,-6.04122 23.9376,-17.68046 28.18783,-32.32213l0.8455,-2.90697h-3.28653c1.56372,-1.99329 2.53195,-4.47524 2.53195,-7.19582c0,-3.30699 -1.38644,-6.29123 -3.59337,-8.42543c2.15238,-1.37507 3.59337,-3.77292 3.59337,-6.51397c0,-4.26613 -3.46836,-7.73676 -7.73903,-7.73676h-126.42928c-4.26613,0 -7.73903,3.47064 -7.73903,7.73676c0,3.37972 2.19102,6.22987 5.21845,7.2822c-1.78873,2.06374 -2.91152,4.71843 -2.91152,7.65722c0,2.7206 0.97051,5.20255 2.53422,7.19582h-5.59348l0.84323,2.90697c4.2525,14.63712 14.83031,26.2809 28.19237,32.32213h-41.50669v4.54569h167.81324v-4.54569zM212.05581,178.6874h126.42701c1.75691,0 3.19108,1.43189 3.19108,3.19108c0,1.75919 -1.43417,3.19334 -3.19108,3.19334h-126.42701c-1.75919,0 -3.19334,-1.43417 -3.19334,-3.19334c0,-1.75919 1.43417,-3.19108 3.19334,-3.19108zM211.17168,196.81788c0,-3.96839 3.22972,-7.20037 7.1981,-7.20037h8.0186l17.9282,12.01654l17.9282,-12.01654h72.23556c3.96839,0 7.1981,3.23198 7.1981,7.20037c0,3.96839 -3.22972,7.19582 -7.1981,7.19582h-23.68305v22.53753c0,1.56599 -1.27507,2.84105 -2.84105,2.84105c-1.56599,0 -2.84105,-1.27507 -2.84105,-2.84105v-11.36423h-4.54569c0,1.56599 -1.27507,2.84105 -2.84105,2.84105c-1.56599,0 -2.84105,-1.27507 -2.84105,-2.84105v-11.17331h-76.51988c-3.96839,0 -7.19582,-3.22744 -7.19582,-7.19582zM254.07845,189.61751l-9.76187,6.54353l-9.76187,-6.54353zM253.48977,239.24281c-19.5601,0 -37.13829,-12.46883 -43.7659,-30.68341h80.61782v6.62762c0,4.07521 3.31381,7.38674 7.38674,7.38674c1.00232,0 1.96601,-0.20001 2.84105,-0.56821v4.54569c0,4.07521 3.31381,7.38674 7.38674,7.38674c4.07294,0 7.38674,-3.31153 7.38674,-7.38674v-17.99185h25.47632c-6.62762,18.21458 -24.20125,30.68341 -43.76818,30.68341zM218.77434,211.99595l-3.96611,2.22511c7.86405,14.03254 22.68526,22.75118 38.68155,22.75118v-4.54569c-14.35302,-0.00227 -27.65371,-7.82768 -34.71543,-20.43061zM208.89883,251.74346h105.30773v4.54569h-105.30773zM320.26823,251.74346h21.96932v4.54569h-21.96932z" data-paper-data="{&quot;isPathIcon&quot;:true}"></path></g></g></g><g class="watermark-group" style="opacity:0.12; stroke: white; stroke-width: 2"><path class="watermark-path" d="M129.52,370.3a11.88,11.88,0,0,1,2.58,5.58,12,12,0,0,1,.11,3,11.81,11.81,0,0,1-.64,2.93,12.34,12.34,0,0,1-1.41,2.72,11.65,11.65,0,0,1-2.13,2.32,12,12,0,0,1-2.64,1.69,13,13,0,0,1-2.91.9,12.47,12.47,0,0,1-3,.12,12.17,12.17,0,0,1-2.93-.64,11.8,11.8,0,0,1-2.72-1.38,12.19,12.19,0,0,1-4-4.79,11.85,11.85,0,0,1-.89-2.92,12.14,12.14,0,0,1-.13-3,11.54,11.54,0,0,1,.64-2.92,11.67,11.67,0,0,1,3.5-5,11.44,11.44,0,0,1,2.67-1.69,11.64,11.64,0,0,1,2.92-.91,10.71,10.71,0,0,1,3-.12,11.68,11.68,0,0,1,5.66,2,11.7,11.7,0,0,1,2.34,2.12m-1.4,8.76a13,13,0,0,1-1.22,2.32,9.68,9.68,0,0,1-1.81,2,7.44,7.44,0,0,1-2.38,1.37,6.17,6.17,0,0,1-5.11-.46,8.73,8.73,0,0,1-3.85-4.58,6.69,6.69,0,0,1-.34-2.66,6.09,6.09,0,0,1,.77-2.47,7.15,7.15,0,0,1,1.75-2.11,9.58,9.58,0,0,1,1.09-.81,8.23,8.23,0,0,1,1.12-.63,8.14,8.14,0,0,1,1.19-.46,12.71,12.71,0,0,1,1.32-.37l2,2.38a12.83,12.83,0,0,0-1.56.17,7.86,7.86,0,0,0-1.23.32,4.5,4.5,0,0,0-1,.49,6.41,6.41,0,0,0-.93.67,4.49,4.49,0,0,0-1.15,1.39,3.87,3.87,0,0,0-.45,1.58,4.12,4.12,0,0,0,.26,1.63,6.11,6.11,0,0,0,2.36,2.82,4.43,4.43,0,0,0,1.57.53,3.91,3.91,0,0,0,1.62-.17,4.71,4.71,0,0,0,1.57-.89,10.5,10.5,0,0,0,.83-.79,5.71,5.71,0,0,0,.65-.93,10.13,10.13,0,0,0,.54-1.14,12.24,12.24,0,0,0,.44-1.49l2,2.33m-14.46,4.55a8.86,8.86,0,0,0,2.78,2.22,9,9,0,0,0,3.29.94,9.15,9.15,0,0,0,3.39-.37,8.68,8.68,0,0,0,3.11-1.69,8.8,8.8,0,0,0,2.22-2.78,9.15,9.15,0,0,0,1-3.29,8.95,8.95,0,0,0-4.83-8.76,9,9,0,0,0-6.73-.57,9,9,0,0,0-5.33,4.47,8.94,8.94,0,0,0-.57,6.71,8.76,8.76,0,0,0,1.7,3.12"></path><path class="watermark-path" d="M147,349c-.48.12-1.09.31-1.82.57a24.37,24.37,0,0,0-2.4,1A28.35,28.35,0,0,0,140,352a20.72,20.72,0,0,0-2.71,1.94c-.7.59-1.28,1.11-1.74,1.57a15.07,15.07,0,0,0-1.1,1.22,4.09,4.09,0,0,0-.59.92,2.32,2.32,0,0,0-.22.64,1.16,1.16,0,0,0,0,.47,1.83,1.83,0,0,0,.18.29,1.15,1.15,0,0,0,1,.37,5.54,5.54,0,0,0,1.51-.38q.87-.35,1.95-.9l2.26-1.18q1.2-.65,2.49-1.29c.87-.44,1.73-.83,2.59-1.17a18.94,18.94,0,0,1,2.6-.81,9.27,9.27,0,0,1,2.46-.29,6.25,6.25,0,0,1,2.24.49,5.12,5.12,0,0,1,1.89,1.47,6.35,6.35,0,0,1,1.41,2.61,6,6,0,0,1,.09,2.6,8.3,8.3,0,0,1-.9,2.52,17.79,17.79,0,0,1-1.62,2.37,23.92,23.92,0,0,1-2,2.15c-.72.67-1.41,1.29-2.09,1.87a33.79,33.79,0,0,1-5.33,3.7,32.29,32.29,0,0,1-4.91,2.28l-3.61-4.3a21.38,21.38,0,0,0,5.39-1.87,27.2,27.2,0,0,0,5.4-3.56,21.59,21.59,0,0,0,2.38-2.27,8.67,8.67,0,0,0,1.18-1.7,2.32,2.32,0,0,0,.27-1.19,1.34,1.34,0,0,0-.28-.74,1.21,1.21,0,0,0-1-.42,4.32,4.32,0,0,0-1.55.34,15.77,15.77,0,0,0-2,.88c-.72.37-1.48.77-2.27,1.21l-2.45,1.3c-.85.45-1.7.85-2.56,1.21a22.37,22.37,0,0,1-2.54.86,10,10,0,0,1-2.43.32,5.76,5.76,0,0,1-2.2-.45,5,5,0,0,1-1.89-1.45,6.12,6.12,0,0,1-1.31-2.41,6,6,0,0,1-.1-2.41,8.28,8.28,0,0,1,.81-2.38,14.06,14.06,0,0,1,1.49-2.24,22.37,22.37,0,0,1,1.85-2.05q1-1,2-1.77c.7-.59,1.44-1.15,2.23-1.7s1.62-1.06,2.44-1.53,1.63-.91,2.43-1.3,1.58-.75,2.3-1L147,349"></path><path class="watermark-path" d="M186.76,337.57l-10.6-12.63,3.92,18.24-4.66,3.91-17.27-7,10.6,12.63-4.86,4.07-15.09-18,6.59-5.54,18.69,7.52-4.15-19.71,6.57-5.52,15.09,18-4.83,4.05"></path><path class="watermark-path" d="M208.84,313.24l-10,8.42,1.16,4.82L194.56,331l-5.68-25.89,5.42-4.55,24.51,10.09-5.42,4.55-4.55-2m-11.23,3.45,6.57-5.52-8.83-3.87,2.26,9.39"></path><path class="watermark-path" d="M227.49,281.38c-.48.12-1.09.31-1.82.57a24.37,24.37,0,0,0-2.4,1,26.11,26.11,0,0,0-2.7,1.47,20.72,20.72,0,0,0-2.71,1.94c-.7.59-1.28,1.11-1.74,1.57a13.39,13.39,0,0,0-1.1,1.22,4.29,4.29,0,0,0-.59.91,2.48,2.48,0,0,0-.22.65,1.16,1.16,0,0,0,0,.47,1.83,1.83,0,0,0,.18.29,1.15,1.15,0,0,0,1,.37,5.54,5.54,0,0,0,1.51-.38q.87-.34,2-.9l2.26-1.18q1.2-.64,2.49-1.29c.87-.44,1.73-.83,2.59-1.17a18.94,18.94,0,0,1,2.6-.81,9.27,9.27,0,0,1,2.46-.29,6.08,6.08,0,0,1,2.24.49,5.09,5.09,0,0,1,1.89,1.46,6.47,6.47,0,0,1,1.41,2.61,6.07,6.07,0,0,1,.09,2.61,8.3,8.3,0,0,1-.9,2.52,16.32,16.32,0,0,1-1.63,2.36,21.41,21.41,0,0,1-2,2.16c-.72.67-1.41,1.29-2.1,1.86a33.36,33.36,0,0,1-5.32,3.71,31.92,31.92,0,0,1-4.92,2.28l-3.6-4.3a21.38,21.38,0,0,0,5.39-1.87,27.2,27.2,0,0,0,5.4-3.56,21.59,21.59,0,0,0,2.38-2.27,8.67,8.67,0,0,0,1.18-1.7A2.32,2.32,0,0,0,231,293a1.34,1.34,0,0,0-.28-.74,1.21,1.21,0,0,0-1-.42,4.32,4.32,0,0,0-1.55.34,16.54,16.54,0,0,0-2,.88c-.71.37-1.47.77-2.26,1.21l-2.46,1.3c-.84.44-1.7.85-2.55,1.21a24.53,24.53,0,0,1-2.54.86A10,10,0,0,1,214,298a5.76,5.76,0,0,1-2.2-.45,5,5,0,0,1-1.89-1.45,6.12,6.12,0,0,1-1.31-2.41,5.78,5.78,0,0,1-.1-2.41,8,8,0,0,1,.81-2.38,14.61,14.61,0,0,1,1.49-2.25,22.26,22.26,0,0,1,1.85-2q1-1,2-1.77c.7-.59,1.44-1.15,2.23-1.7s1.62-1.06,2.44-1.53,1.63-.91,2.43-1.31,1.58-.74,2.3-1l3.5,4.16"></path><path class="watermark-path" d="M261.64,274.74l-6.29-7.5L243,277.61l6.3,7.5-4.86,4.07-15.09-18,4.85-4.08,5.49,6.55L252,263.3l-5.49-6.55,4.86-4.07,15.09,18-4.86,4.08"></path><path class="watermark-path" d="M272.18,265.9l-15.09-18,4.86-4.08,15.09,18-4.86,4.08"></path><path class="watermark-path" d="M299.65,242.85l-22.51-2.18L287.51,253l-4.85,4.08-15.1-18,5.28-4.43,22.56,2.22L285,224.5l4.83-4.06,15.09,18-5.26,4.42"></path><path class="watermark-path" d="M306.68,205.52a31.88,31.88,0,0,1,5.29-3.66,34.48,34.48,0,0,1,5.14-2.35l3.69,4.39a20.77,20.77,0,0,0-2.37.61,20.47,20.47,0,0,0-2.61,1,25.12,25.12,0,0,0-2.76,1.49,23.9,23.9,0,0,0-2.8,2,20.42,20.42,0,0,0-2.8,2.77,12.77,12.77,0,0,0-1.64,2.52,7,7,0,0,0-.68,2.24,6,6,0,0,0,.66,3.64,8.16,8.16,0,0,0,.94,1.38,9.12,9.12,0,0,0,1.08,1.07,6.39,6.39,0,0,0,1.47.91,6.73,6.73,0,0,0,1.88.48,6.54,6.54,0,0,0,2.28-.18,11.67,11.67,0,0,0,2.74-1.07,19.38,19.38,0,0,0,3.18-2.22c.57-.48,1.06-.92,1.46-1.31a14.57,14.57,0,0,0,1-1.13,11.46,11.46,0,0,0,.81-1.05l.74-1.09-1.82-2.17-5.45,4.57-3.31-3.94,10.31-8.65,7.71,9.19a29,29,0,0,1-1.67,2.43q-1,1.26-2.1,2.52c-.74.84-1.5,1.65-2.3,2.44s-1.58,1.5-2.33,2.14a31,31,0,0,1-3.59,2.61,22.55,22.55,0,0,1-3.64,1.83,15.64,15.64,0,0,1-3.63.89,10.72,10.72,0,0,1-3.49-.15,10.45,10.45,0,0,1-3.28-1.33,12.54,12.54,0,0,1-3-2.67,12,12,0,0,1-2.08-3.44,10.45,10.45,0,0,1-.71-3.5,11.14,11.14,0,0,1,.51-3.51,15.72,15.72,0,0,1,1.56-3.43,21.62,21.62,0,0,1,2.42-3.28,30.3,30.3,0,0,1,3.15-3"></path><path class="watermark-path" d="M336.91,211.59l-15.1-18,4.86-4.08,11.79,14,13.13-11,3.31,3.94-18,15.1"></path><path class="watermark-path" d="M374.54,164.71a12.28,12.28,0,0,1,2.59,4.81,10.44,10.44,0,0,1,0,5,14.62,14.62,0,0,1-2.33,5,25.55,25.55,0,0,1-4.56,4.85,26.07,26.07,0,0,1-5.6,3.67,14.79,14.79,0,0,1-5.38,1.43,10.43,10.43,0,0,1-4.94-.89,13.24,13.24,0,0,1-6.87-8.18,10.48,10.48,0,0,1,0-5,14.51,14.51,0,0,1,2.36-5,25.23,25.23,0,0,1,4.57-4.89,25,25,0,0,1,5.59-3.64,14.45,14.45,0,0,1,5.35-1.43,10.31,10.31,0,0,1,4.93.92,12.22,12.22,0,0,1,4.28,3.38m-4.91,4.11a8.36,8.36,0,0,0-2-1.72,5.5,5.5,0,0,0-2.65-.85,7.72,7.72,0,0,0-3.32.57,14.49,14.49,0,0,0-4,2.52,16.72,16.72,0,0,0-2.38,2.4,10.15,10.15,0,0,0-1.39,2.24,6.71,6.71,0,0,0-.56,2.1,5.69,5.69,0,0,0,.1,1.9,6.21,6.21,0,0,0,.61,1.69,9.85,9.85,0,0,0,1,1.44,10.48,10.48,0,0,0,1.26,1.23,6.67,6.67,0,0,0,1.57.92,6.1,6.1,0,0,0,1.85.41,6.8,6.8,0,0,0,2.15-.2,11.06,11.06,0,0,0,2.45-1,17.67,17.67,0,0,0,2.77-1.94,14.39,14.39,0,0,0,3.18-3.52,7.74,7.74,0,0,0,1.14-3.17,5.54,5.54,0,0,0-.37-2.74,8.52,8.52,0,0,0-1.36-2.3"></path><path class="watermark-path" d="M382.66,141.76A32.3,32.3,0,0,1,388,138.1a34.12,34.12,0,0,1,5.15-2.35l3.69,4.4a19.62,19.62,0,0,0-2.37.6,22.08,22.08,0,0,0-2.61,1,26,26,0,0,0-2.77,1.49,23.9,23.9,0,0,0-2.8,2,21,21,0,0,0-2.8,2.78,13.19,13.19,0,0,0-1.64,2.51,7.29,7.29,0,0,0-.68,2.24,6.36,6.36,0,0,0,.06,2,5.8,5.8,0,0,0,.61,1.68,8.12,8.12,0,0,0,.93,1.38,9.16,9.16,0,0,0,1.08,1.08,6.56,6.56,0,0,0,1.48.9,6,6,0,0,0,1.87.48,6.76,6.76,0,0,0,2.28-.17,12,12,0,0,0,2.74-1.08,18.57,18.57,0,0,0,3.18-2.22c.58-.48,1.06-.92,1.46-1.31s.75-.77,1.05-1.12.57-.72.81-1.06l.73-1.09-1.82-2.17-5.45,4.57-3.3-3.94,10.3-8.65,7.71,9.19a29,29,0,0,1-1.67,2.43q-1,1.26-2.1,2.52c-.73.84-1.5,1.66-2.3,2.44s-1.57,1.5-2.33,2.14a31,31,0,0,1-3.59,2.61,22.15,22.15,0,0,1-3.64,1.83,15.56,15.56,0,0,1-3.62.89,11,11,0,0,1-3.49-.14,10.84,10.84,0,0,1-3.28-1.33,12.82,12.82,0,0,1-3-2.68,12.12,12.12,0,0,1-2.08-3.43A10.71,10.71,0,0,1,375,155a11.18,11.18,0,0,1,.51-3.51,15.51,15.51,0,0,1,1.57-3.43,21.44,21.44,0,0,1,2.42-3.28,30.19,30.19,0,0,1,3.14-3"></path><path class="watermark-path" d="M428.63,119.31a12.26,12.26,0,0,1,2.59,4.82,10.44,10.44,0,0,1,0,5,14.53,14.53,0,0,1-2.34,5,25.29,25.29,0,0,1-4.56,4.86,26,26,0,0,1-5.59,3.67,14.84,14.84,0,0,1-5.38,1.43,10.61,10.61,0,0,1-4.95-.89,12.15,12.15,0,0,1-4.3-3.37,12,12,0,0,1-2.56-4.81,10.48,10.48,0,0,1,0-5,14.39,14.39,0,0,1,2.35-5,27.89,27.89,0,0,1,10.16-8.53,14.49,14.49,0,0,1,5.36-1.43,10.27,10.27,0,0,1,4.92.92,12.21,12.21,0,0,1,4.28,3.37m-4.91,4.12a8.17,8.17,0,0,0-2-1.72,5.58,5.58,0,0,0-2.65-.86,7.86,7.86,0,0,0-3.31.58,14.49,14.49,0,0,0-4,2.52,16.21,16.21,0,0,0-2.38,2.4,9.85,9.85,0,0,0-1.4,2.24,7,7,0,0,0-.56,2.1,6,6,0,0,0,.1,1.9,6.23,6.23,0,0,0,.62,1.69,8.49,8.49,0,0,0,1,1.44,9.18,9.18,0,0,0,1.26,1.23,6.67,6.67,0,0,0,1.57.92,6,6,0,0,0,1.84.41,6.86,6.86,0,0,0,2.16-.2,11.26,11.26,0,0,0,2.45-1,17.62,17.62,0,0,0,2.76-1.94,14.67,14.67,0,0,0,3.19-3.52,7.71,7.71,0,0,0,1.13-3.17,5.53,5.53,0,0,0-.36-2.74,8.55,8.55,0,0,0-1.37-2.3"></path>
  </g>
</svg>
